<svg width="26" height="40" viewBox="0 0 26 40" fill="none" xmlns="http://www.w3.org/2000/svg">
<path fill-rule="evenodd" clip-rule="evenodd" d="M18.8614 25.4783C18.7199 26.6282 17.4597 26.9672 15.9191 26.6055C16.7389 20.9844 21.738 17.8977 22.2446 13.773C23.7835 1.23574 4.77592 -1.71163 3.1355 11.6433C2.60329 15.9768 6.87192 18.9183 6.19908 25.3869C4.64456 25.3541 3.53298 24.7352 3.66098 23.6956C4.00456 20.896 -0.115444 15.632 0.403714 11.4054C2.51108 -5.75878 26.9393 -1.97057 24.9612 14.1418C24.3848 18.84 19.0846 23.6606 18.8614 25.4783ZM8.62519 12.9945C8.78982 9.70522 11.1098 10.8618 11.1098 10.8618L10.3987 25.8063L8.12035 25.5819C8.12035 25.5819 8.46056 16.2838 8.62519 12.9945ZM16.554 13.9991C15.8134 17.7002 13.9759 26.2497 13.9759 26.2497L11.6963 26.0337L14.4374 11.2092C14.4374 11.2092 17.2938 10.2985 16.554 13.9991ZM4.56919 26.9154L17.3688 28.4097C17.3688 28.4097 16.9258 31.3448 16.7713 32.5638C16.5473 34.3326 13.3991 36.2564 12.3949 36.1293C10.8572 35.9339 8.4854 35.6615 7.22729 35.5019C6.60708 35.4232 3.73256 33.0728 3.98435 31.0918C4.16161 29.6922 4.56919 26.9154 4.56919 26.9154ZM12.4075 37.4299C12.0071 40.5869 6.74393 39.9962 7.14687 36.8189C8.3115 36.9663 10.4479 37.1819 12.4075 37.4299Z" fill="#EE5D2D"/>
</svg>
