<svg width="133" height="117" viewBox="0 0 133 117" fill="none" xmlns="http://www.w3.org/2000/svg">
<path d="M128.504 23.348L88.206 58.4992L128.504 93.6488C134.499 98.8789 134.499 107.351 128.504 112.581C125.509 115.193 121.583 116.5 117.658 116.5C113.727 116.5 109.8 115.195 106.807 112.581L66.5002 77.4272L26.1962 112.58C23.2016 115.193 19.2747 116.5 15.3465 116.5C11.4195 116.5 7.49519 115.195 4.4979 112.58C-1.49625 107.353 -1.49625 98.8805 4.4979 93.6486L44.7949 58.499L4.49563 23.348C-1.49854 18.12 -1.49854 9.64606 4.49563 4.41803C10.4886 -0.806009 20.1986 -0.806009 26.1939 4.41803L66.4999 39.5691L106.803 4.41803C112.799 -0.806009 122.51 -0.806009 128.502 4.41803C134.499 9.64606 134.499 18.12 128.504 23.348Z" fill="#444444"/>
</svg>
