<svg width="30" height="30" viewBox="0 0 30 30" fill="none" xmlns="http://www.w3.org/2000/svg">
<path d="M24.6211 1.54395C25.6146 0.551652 27.1844 0.489659 28.249 1.35742L28.4551 1.54395C29.4484 2.53699 29.5106 4.10767 28.6416 5.17285L28.4561 5.37891L19.3662 14.4697L18.8359 15L28.4551 24.6191V24.6201C29.4482 25.6136 29.5106 27.1844 28.6416 28.25L28.4551 28.4561C27.9257 28.9852 27.2333 29.25 26.5391 29.25C25.9299 29.2499 25.3239 29.0475 24.8281 28.6426L24.623 28.4561H24.6221L15 18.834L14.4697 19.3643L5.37891 28.4561C4.84985 28.9852 4.15712 29.2499 3.46191 29.25C2.85386 29.25 2.24776 29.0479 1.75098 28.6426L1.54492 28.4561C0.552107 27.4633 0.4893 25.8923 1.3584 24.8262L1.54492 24.6201L11.165 15L1.54395 5.37891C0.551097 4.38596 0.489694 2.81519 1.3584 1.75L1.54395 1.54395C2.53652 0.551931 4.10648 0.489475 5.17188 1.35742L5.37793 1.54395L14.4697 10.6348L15 11.165L24.6211 1.54395Z" fill="#9A6D3B" stroke="#E3DED8" stroke-width="1.5"/>
</svg>
