<svg width="77" height="74" viewBox="0 0 77 74" fill="none" xmlns="http://www.w3.org/2000/svg">
<path d="M8.39071 33.1508L8.35051 33.2225H15.0504V67.2223C15.0504 68.2242 15.4033 69.1851 16.0316 69.8935C16.6598 70.602 17.5119 71 18.4003 71H58.5995C59.488 71 60.34 70.602 60.9683 69.8935C61.5965 69.1851 61.9494 68.2242 61.9494 67.2223V33.2225H68.6493C69.3683 33.2227 70.0683 32.962 70.6458 32.4789C71.2233 31.9959 71.6476 31.3161 71.8561 30.5401C72.0646 29.7641 72.0461 28.933 71.8034 28.1698C71.5608 27.4065 71.1068 26.7515 70.5085 26.3017L40.3591 3.63523C39.8086 3.22104 39.1617 3 38.4999 3C37.8381 3 37.1912 3.22104 36.6407 3.63523L6.4913 26.3017C6.12524 26.577 5.81086 26.9309 5.56611 27.3432C5.32136 27.7556 5.15104 28.2182 5.06487 28.7048C4.9787 29.1914 4.97837 29.6923 5.06391 30.179C5.14944 30.6658 5.31916 31.1287 5.56337 31.5414C5.87604 32.0568 6.29924 32.4746 6.79357 32.756C7.28791 33.0374 7.83733 33.1732 8.39071 33.1508ZM31.8 44.5558C31.8 43.5539 32.153 42.593 32.7812 41.8845C33.4094 41.176 34.2615 40.778 35.15 40.778H41.8498C42.7383 40.778 43.5904 41.176 44.2186 41.8845C44.8468 42.593 45.1998 43.5539 45.1998 44.5558V63.4445H31.8V44.5558Z" fill="#9A6D3B"/>
</svg>
