<svg width="32" height="34" viewBox="0 0 32 34" fill="none" xmlns="http://www.w3.org/2000/svg">
<path fill-rule="evenodd" clip-rule="evenodd" d="M0.624023 10.347C0.624023 10.347 0.634128 6.14529 0.634128 4.85434C0.634128 2.49266 1.15876 1.0055 4.32507 1.0055C7.49139 1.0055 26.2804 0.840027 28.5052 0.840027C31.2433 0.840027 31.6939 2.74529 31.6939 4.85476C31.6939 5.96129 31.7368 10.0531 31.7368 10.0531L0.624023 10.347ZM8.49308 14.1857C11.6918 14.1857 11.7722 19.221 8.71455 19.221C5.08844 19.221 5.35539 14.1857 8.49308 14.1857ZM8.71455 26.7419C5.08844 26.7419 5.35497 21.7065 8.49308 21.7065C11.6918 21.7065 11.7722 26.7419 8.71455 26.7419ZM16.3078 14.1857C19.5065 14.1857 19.587 19.221 16.5293 19.221C12.9036 19.221 13.1701 14.1857 16.3078 14.1857ZM16.5297 26.7419C12.9036 26.7419 13.1701 21.7065 16.3082 21.7065C19.5065 21.7065 19.5874 26.7419 16.5297 26.7419ZM24.1251 14.1857C27.3238 14.1857 27.4038 19.221 24.3465 19.221C20.7204 19.221 20.9874 14.1857 24.1251 14.1857ZM3.51244 12.7482L3.69392 29.6497C3.69392 29.6497 15.2219 29.2863 18.3861 29.2863C24.515 29.2863 22.5394 22.9474 22.5394 22.9474L29.144 22.7583L29.2055 12.7495H31.4261L31.6379 32.9848L0.977285 33.2783L1.07202 12.7487L3.51244 12.7482Z" fill="url(#paint0_linear_398_88)"/>
<defs>
<linearGradient id="paint0_linear_398_88" x1="16.1804" y1="0.840027" x2="16.1804" y2="33.2783" gradientUnits="userSpaceOnUse">
<stop stop-color="#F2AE14"/>
<stop offset="1" stop-color="#EE5D2D"/>
</linearGradient>
</defs>
</svg>
