<svg width="40" height="36" viewBox="0 0 40 36" fill="none" xmlns="http://www.w3.org/2000/svg">
<path d="M18.7732 24.2505H16.379C16.379 26.5981 14.4692 28.508 12.1216 28.508V30.9022C14.4692 30.9022 16.379 32.8121 16.379 35.1597H18.7732C18.7732 32.8121 20.6831 30.9022 23.0307 30.9022V28.508C20.6831 28.508 18.7732 26.5981 18.7732 24.2505ZM17.5761 31.3565C17.1267 30.7141 16.5672 30.1544 15.9246 29.7051C16.567 29.2557 17.1267 28.6962 17.5761 28.0537C18.0255 28.6962 18.5851 29.2559 19.2275 29.7051C18.5851 30.1545 18.0255 30.7139 17.5761 31.3565Z" fill="url(#paint0_linear_398_147)"/>
<path d="M4.86363 12.1213H7.25787C7.25787 9.43958 9.43953 7.25775 12.1213 7.25775V4.8635C9.43968 4.8635 7.25787 2.68183 7.25787 0H4.86363C4.86363 2.68152 2.68181 4.8635 0 4.8635V7.25775C2.68166 7.25775 4.86363 9.43958 4.86363 12.1213ZM6.06075 3.98926C6.60378 4.81168 7.30984 5.51759 8.13211 6.06063C7.30969 6.60366 6.60378 7.30972 6.06075 8.132C5.51772 7.30957 4.81166 6.60366 3.98939 6.06063C4.81166 5.51759 5.51757 4.81153 6.06075 3.98926Z" fill="url(#paint1_linear_398_147)"/>
<path d="M25.4697 26.6748H27.8639C27.8639 19.9828 33.3082 14.5386 40 14.5386V12.1443C33.308 12.1443 27.8639 6.70005 27.8639 0.00805664H25.4697C25.4697 6.70005 20.0255 12.1443 13.3335 12.1443V14.5386C20.0253 14.5386 25.4697 19.9828 25.4697 26.6748ZM26.6668 5.78323C28.1348 9.15945 30.8488 11.8734 34.225 13.3414C30.8486 14.8095 28.1348 17.5234 26.6668 20.8996C25.1988 17.5234 22.4848 14.8095 19.1086 13.3414C22.4847 11.8734 25.1988 9.15945 26.6668 5.78323Z" fill="url(#paint2_linear_398_147)"/>
<defs>
<linearGradient id="paint0_linear_398_147" x1="13.7579" y1="24.4057" x2="24.4677" y2="33.416" gradientUnits="userSpaceOnUse">
<stop stop-color="#F2AE14"/>
<stop offset="1" stop-color="#EE5D2D"/>
</linearGradient>
<linearGradient id="paint1_linear_398_147" x1="1.8182" y1="0.172375" x2="13.7179" y2="10.1839" gradientUnits="userSpaceOnUse">
<stop stop-color="#F2AE14"/>
<stop offset="1" stop-color="#EE5D2D"/>
</linearGradient>
<linearGradient id="paint2_linear_398_147" x1="17.3335" y1="0.387281" x2="43.5128" y2="22.4123" gradientUnits="userSpaceOnUse">
<stop stop-color="#F2AE14"/>
<stop offset="1" stop-color="#EE5D2D"/>
</linearGradient>
</defs>
</svg>
