<svg width="41" height="44" viewBox="0 0 41 44" fill="none" xmlns="http://www.w3.org/2000/svg">
<path fill-rule="evenodd" clip-rule="evenodd" d="M2.66844 23.7566L10.5943 13.5436L32.1072 13.8834L40.0331 23.4173L21.124 43.2084L2.66844 23.7566ZM11.9303 16.0897L6.08065 23.6505L18.5948 37.0509L13.999 24.9465L9.82086 24.4286L9.92486 23.056L13.9522 22.7352L15.908 16.0728L11.9303 16.0897ZM25.6474 16.032L18.4209 16.0623L16.5051 22.6131L27.2171 22.6029L25.6474 16.032ZM27.0234 25.1326L16.66 25.1293L21.3122 38.6072L27.0234 25.1326ZM12.2086 9.46063L12.5135 2.35495L15.8916 2.88716L13.7695 9.73053L12.2086 9.46063ZM4.74801 1.448L8.2297 0.447998L10.191 9.62821L8.5998 10.3811L4.74801 1.448ZM6.23433 12.4164L0.683594 9.56968L2.68528 6.77642L6.94928 11.1061L6.23433 12.4164Z" fill="url(#paint0_linear_398_80)"/>
<defs>
<linearGradient id="paint0_linear_398_80" x1="20.3583" y1="0.447998" x2="20.3583" y2="43.2084" gradientUnits="userSpaceOnUse">
<stop stop-color="#F2AE14"/>
<stop offset="1" stop-color="#EE5D2D"/>
</linearGradient>
</defs>
</svg>
