<svg width="25" height="25" viewBox="0 0 25 25" fill="none" xmlns="http://www.w3.org/2000/svg">
<path fill-rule="evenodd" clip-rule="evenodd" d="M12.5 0C9.10522 0 8.67953 0.0143895 7.34627 0.0752223C6.01579 0.135906 5.10713 0.347234 4.31203 0.65626C3.49004 0.975657 2.79295 1.40308 2.09799 2.09799C1.40307 2.79295 0.975656 3.49004 0.656259 4.31203C0.347233 5.10713 0.135907 6.0158 0.0752223 7.34628C0.0143895 8.67954 0 9.10522 0 12.5001C0 15.8948 0.0143895 16.3205 0.0752223 17.6538C0.135907 18.9842 0.347233 19.893 0.656259 20.688C0.975656 21.51 1.40307 22.2071 2.09799 22.902C2.79295 23.597 3.49004 24.0244 4.31203 24.3439C5.10713 24.6528 6.01579 24.8641 7.34627 24.9249C8.67953 24.9856 9.10522 25 12.5 25C15.8948 25 16.3205 24.9856 17.6537 24.9249C18.9842 24.8641 19.8929 24.6528 20.688 24.3439C21.5099 24.0244 22.207 23.597 22.902 22.902C23.597 22.2071 24.0244 21.51 24.3439 20.688C24.6528 19.893 24.8641 18.9842 24.9248 17.6538C24.9856 16.3205 25 15.8948 25 12.5001C25 9.10522 24.9856 8.67954 24.9248 7.34628C24.8641 6.0158 24.6528 5.10713 24.3439 4.31203C24.0244 3.49004 23.597 2.79295 22.902 2.09799C22.207 1.40308 21.5099 0.975657 20.688 0.65626C19.8929 0.347234 18.9842 0.135906 17.6537 0.0752223C16.3205 0.0143895 15.8948 0 12.5 0ZM8.33335 12.5001C8.33335 14.8012 10.1988 16.6667 12.5 16.6667C14.8013 16.6667 16.6667 14.8012 16.6667 12.5001C16.6667 10.1988 14.8013 8.33335 12.5 8.33335C10.1988 8.33335 8.33335 10.1988 8.33335 12.5001ZM6.08109 12.5001C6.08109 8.95492 8.95492 6.08109 12.5 6.08109C16.0451 6.08109 18.9189 8.95492 18.9189 12.5001C18.9189 16.0451 16.0451 18.9189 12.5 18.9189C8.95492 18.9189 6.08109 16.0451 6.08109 12.5001ZM19.1725 7.32748C20.001 7.32748 20.6726 6.65593 20.6726 5.82749C20.6726 4.99905 20.001 4.32746 19.1725 4.32746C18.3441 4.32746 17.6726 4.99905 17.6726 5.82749C17.6726 6.65593 18.3441 7.32748 19.1725 7.32748Z" fill="white"/>
</svg>
