<svg width="77" height="74" viewBox="0 0 77 74" fill="none" xmlns="http://www.w3.org/2000/svg">
<path d="M31.5976 65.9393C35.8769 70.7518 37.2552 71.1432 38.5 71.1432C39.7613 71.1432 41.1542 70.7518 45.4394 65.9411C48.0613 62.9983 50.9742 59.2568 53.6419 55.4047C57.8842 49.2799 65 37.7702 65 29.4995C65 14.8877 53.1124 2.99951 38.5 2.99951C23.8876 2.99951 12 14.8877 12 29.4995C12 37.3435 18.1959 47.9175 23.3939 55.4071C26.0587 59.2462 28.9721 62.9865 31.5976 65.9393ZM27.6656 29.3161C27.6656 23.2942 32.565 18.3953 38.587 18.3953C44.609 18.3953 49.5084 23.2942 49.5084 29.3161C49.5084 35.3381 44.609 40.2375 38.587 40.2375C32.565 40.2375 27.6656 35.3381 27.6656 29.3161Z" fill="#9A6D3B"/>
</svg>
