<svg width="77" height="74" viewBox="0 0 77 74" fill="none" xmlns="http://www.w3.org/2000/svg">
<path d="M52.0393 46.4172L50.3692 48.0952C50.3692 48.0952 46.3997 52.0846 35.5647 41.1956C24.7297 30.307 28.6992 26.3178 28.6992 26.3178L29.7508 25.2609C32.3417 22.6574 32.5859 18.4774 30.3254 15.4259L25.7019 9.18365C22.9043 5.40675 17.4985 4.90782 14.292 8.13025L8.53677 13.914C6.94684 15.5118 5.88138 17.5831 6.01059 19.8808C6.34114 25.7591 8.97259 38.4069 23.6563 53.1634C39.2277 68.8119 53.8382 69.4338 59.813 68.8708C61.7028 68.6929 63.3462 67.7202 64.6706 66.389L69.8795 61.1548C73.3955 57.6212 72.404 51.5636 67.9054 49.0921L60.9002 45.2432C57.9463 43.6204 54.3479 44.0969 52.0393 46.4172Z" fill="#9A6D3B"/>
</svg>
