<svg width="32" height="32" viewBox="0 0 32 32" fill="none" xmlns="http://www.w3.org/2000/svg">
<path fill-rule="evenodd" clip-rule="evenodd" d="M24.3158 21.7604C26.0598 19.4779 27.1079 16.6406 27.1079 13.554C27.1079 6.0794 21.0285 0 13.554 0C6.0794 0 0 6.0794 0 13.554C0 21.0285 6.0794 27.1079 13.554 27.1079C16.6406 27.1079 19.4798 26.0598 21.7622 24.3158L29.4446 32L32 29.4446L24.3158 21.7604ZM13.554 23.4935C8.07273 23.4935 3.61438 19.0334 3.61438 13.554C3.61438 8.07455 8.07273 3.61438 13.554 3.61438C19.0352 3.61438 23.4935 8.07455 23.4935 13.554C23.4935 19.0334 19.0352 23.4935 13.554 23.4935Z" fill="#9A6D3B"/>
</svg>
