<svg width="20" height="20" viewBox="0 0 20 20" fill="none" xmlns="http://www.w3.org/2000/svg">
<path fill-rule="evenodd" clip-rule="evenodd" d="M15.1974 13.6003C16.2873 12.1737 16.9424 10.4004 16.9424 8.47123C16.9424 3.79962 13.1428 0 8.47123 0C3.79962 0 0 3.79962 0 8.47123C0 13.1428 3.79962 16.9424 8.47123 16.9424C10.4004 16.9424 12.1748 16.2873 13.6014 15.1974L18.4029 20L20 18.4029L15.1974 13.6003ZM8.47123 14.6835C5.04546 14.6835 2.25899 11.8959 2.25899 8.47123C2.25899 5.04659 5.04546 2.25899 8.47123 2.25899C11.897 2.25899 14.6835 5.04659 14.6835 8.47123C14.6835 11.8959 11.897 14.6835 8.47123 14.6835Z" fill="white"/>
</svg>
