<svg width="68" height="68" viewBox="0 0 68 68" fill="none" xmlns="http://www.w3.org/2000/svg">
<path d="M61.4514 47.4906C61.4502 51.3105 60.1445 55.0155 57.7505 57.9921C55.3565 60.9688 52.0177 63.0386 48.2869 63.859L46.5048 58.5127C48.1367 58.2439 49.6887 57.6165 51.0489 56.6756C52.409 55.7347 53.5435 54.5037 54.3706 53.0715H47.4853C46.0036 53.0715 44.5827 52.4829 43.535 51.4352C42.4874 50.3876 41.8988 48.9666 41.8988 47.485V36.3121C41.8988 34.8304 42.4874 33.4095 43.535 32.3618C44.5827 31.3142 46.0036 30.7256 47.4853 30.7256H55.6918C55.0102 25.326 52.3816 20.3606 48.2993 16.7613C44.217 13.1619 38.9615 11.1759 33.5191 11.1759C28.0766 11.1759 22.8211 13.1619 18.7388 16.7613C14.6565 20.3606 12.028 25.326 11.3463 30.7256H19.5529C21.0345 30.7256 22.4554 31.3142 23.5031 32.3618C24.5508 33.4095 25.1393 34.8304 25.1393 36.3121V47.485C25.1393 48.9666 24.5508 50.3876 23.5031 51.4352C22.4554 52.4829 21.0345 53.0715 19.5529 53.0715H11.1731C9.69152 53.0715 8.27058 52.4829 7.22291 51.4352C6.17524 50.3876 5.58667 48.9666 5.58667 47.485V33.5188C5.58667 18.0918 18.092 5.58643 33.5191 5.58643C48.9461 5.58643 61.4514 18.0918 61.4514 33.5188V47.4906Z" fill="white"/>
</svg>
