<svg width="38" height="30" viewBox="0 0 38 30" fill="none" xmlns="http://www.w3.org/2000/svg">
<path d="M35.1579 8.33691H25.5022L21.1337 12.6289C20.5421 13.2101 19.759 13.5302 18.9295 13.5302C18.0788 13.5302 17.282 13.1959 16.6856 12.5889C15.5334 11.415 15.4912 9.56195 16.5443 8.33699H2.09882C0.939714 8.33691 0 9.27663 0 10.4362V11.136C0 12.2783 0.913372 13.2063 2.05029 13.2322L4.31312 27.0896C4.5868 28.7677 6.03748 30 7.73769 30H29.5153C31.2161 30 32.6657 28.7677 32.9399 27.0896L35.2033 13.2322C36.3407 13.2079 37.2567 12.2798 37.2567 11.136V10.4362C37.2567 9.27663 36.317 8.33691 35.1579 8.33691ZM11.1749 26.2164C10.9888 26.4226 10.7235 26.5408 10.4461 26.5408H9.89829C9.40944 26.5408 8.99547 26.1811 8.92685 25.6975L7.7219 17.1777C7.68231 16.8961 7.76614 16.6114 7.95228 16.3967C8.13849 16.1827 8.40904 16.0592 8.69319 16.0592H9.55388C10.0564 16.0592 10.4772 16.4384 10.5295 16.9378L11.4217 25.4581C11.4502 25.7344 11.3605 26.0097 11.1749 26.2164ZM16.7901 26.2449C16.606 26.4337 16.3529 26.5408 16.0887 26.5408H15.5276C15.0086 26.5408 14.5795 26.1363 14.5489 25.6184L14.0427 17.0981C14.0268 16.8286 14.1228 16.5639 14.3079 16.3677C14.4935 16.171 14.7514 16.0592 15.0219 16.0592H15.8963C16.4293 16.0592 16.8645 16.4853 16.8766 17.0174L17.0696 25.5377C17.0754 25.8014 16.9747 26.0566 16.7901 26.2449ZM22.7048 25.6184C22.6736 26.1363 22.2444 26.5408 21.7255 26.5408H21.1644C20.9002 26.5408 20.6476 26.4337 20.4636 26.2449C20.2784 26.0566 20.1777 25.8014 20.1835 25.5377L20.3771 17.0174C20.3888 16.4854 20.8243 16.0592 21.3575 16.0592H22.2318C22.5013 16.0592 22.7602 16.1711 22.9453 16.3678C23.1304 16.564 23.2263 16.8287 23.2105 17.0982L22.7048 25.6184ZM29.5312 17.1777L28.3262 25.6975C28.2582 26.1811 27.8437 26.5408 27.3554 26.5408H26.8075C26.5296 26.5408 26.2643 26.4226 26.0786 26.2164C25.8925 26.0097 25.8028 25.7344 25.8319 25.4581L26.7236 16.9378C26.7758 16.4384 27.1972 16.0592 27.6992 16.0592H28.5599C28.8441 16.0592 29.1141 16.1827 29.3003 16.3967C29.4869 16.6114 29.5712 16.8961 29.5312 17.1777Z" fill="#9A6D3B"/>
<path d="M20.2012 11.6791L28.9246 3.11039C29.6397 2.40738 29.6497 1.25832 28.9473 0.543236C28.2448 -0.171846 27.0952 -0.182398 26.3802 0.520096L17.6573 9.08987C16.9422 9.7923 16.9322 10.9414 17.6341 11.6564C18.3371 12.3715 19.4856 12.3821 20.2012 11.6791Z" fill="#9A6D3B"/>
</svg>
