<svg width="30" height="24" viewBox="0 0 30 24" fill="none" xmlns="http://www.w3.org/2000/svg">
<path fill-rule="evenodd" clip-rule="evenodd" d="M9.435 23.9997C20.7555 23.9997 26.9475 14.765 26.9475 6.75775C26.9475 6.49487 26.9475 6.23398 26.9295 5.97406C28.134 5.1175 29.1735 4.05398 30 2.83709C28.878 3.3274 27.6855 3.64894 26.466 3.79071C27.75 3.0331 28.7115 1.84286 29.172 0.438413C27.963 1.14433 26.6415 1.64253 25.263 1.90985C22.932 -0.529856 19.0335 -0.648061 16.554 1.64691C14.9565 3.12667 14.277 5.33298 14.7735 7.43744C9.825 7.19229 5.214 4.89145 2.088 1.10638C0.4545 3.8754 1.29 7.41643 3.9945 9.19452C3.015 9.16645 2.0565 8.90681 1.2 8.43719V8.5141C1.2015 11.3983 3.267 13.8818 6.138 14.4533C5.232 14.697 4.281 14.7323 3.36 14.5566C4.1655 17.0258 6.477 18.7171 9.1095 18.7658C6.93 20.4523 4.2375 21.3681 1.4655 21.3652C0.9765 21.3637 0.4875 21.3356 0 21.278C2.8155 23.0561 6.09 23.9997 9.435 23.9953" fill="white"/>
</svg>
