<svg width="56" height="56" viewBox="0 0 56 56" fill="none" xmlns="http://www.w3.org/2000/svg">
<path d="M6 50.2532C6 51.2833 6.35198 52.1747 7.05593 52.9274C7.75988 53.6801 8.63982 54.0366 9.69575 53.997H46.36C47.3377 53.997 48.1981 53.6405 48.9411 52.9274C49.6842 52.2143 50.0362 51.3229 49.9971 50.2532C49.9971 48.4705 49.5864 46.6679 48.7651 44.8455C47.9439 43.0232 46.8684 41.3989 45.5387 39.9727C44.209 38.5465 42.6838 37.2193 40.963 35.9912C39.2422 34.7631 37.4823 33.8321 35.6834 33.1982C37.8343 31.8512 39.5355 30.0487 40.787 27.7905C42.0385 25.5324 42.6642 23.1157 42.6642 20.5407V16.8563C42.6642 12.7361 41.2368 9.23006 38.3818 6.33804C35.5269 3.44601 32.0658 2 27.9985 2C23.9312 2 20.4701 3.44601 17.6152 6.33804C14.7603 9.23006 13.3328 12.7361 13.3328 16.8563V20.5407C13.3328 23.1554 13.9586 25.572 15.2101 27.7905C16.4615 30.0091 18.1627 31.8116 20.3137 33.1982C18.4756 33.8717 16.7157 34.8027 15.0341 35.9912C13.3524 37.1797 11.8272 38.5069 10.4584 39.9727C9.08957 41.4385 8.01409 43.0628 7.23192 44.8455C6.44975 46.6283 6.03911 48.4309 6 50.2532Z" fill="#9A6D3B"/>
</svg>
