<svg width="27" height="19" viewBox="0 0 27 19" fill="none" xmlns="http://www.w3.org/2000/svg">
<path d="M26.1173 2.93906C25.9692 2.36786 25.672 1.84624 25.2562 1.42751C24.8403 1.00878 24.3208 0.707928 23.7507 0.555711C20.294 0.148028 16.8145 -0.0356889 13.334 0.00571114C9.85356 -0.0356889 6.37408 0.148028 2.91735 0.555711C2.34721 0.707928 1.8277 1.00878 1.4119 1.42751C0.99608 1.84624 0.698897 2.36786 0.55068 2.93906C0.17203 5.06229 -0.0120697 7.21569 0.000680326 9.37236C-0.012703 11.5402 0.171397 13.7047 0.55068 15.839C0.70658 16.401 1.00718 16.9122 1.42248 17.3217C1.83776 17.7312 2.35321 18.0245 2.91735 18.1724C6.37408 18.58 9.85356 18.7639 13.334 18.7224C16.8145 18.7639 20.294 18.58 23.7507 18.1724C24.3148 18.0245 24.8303 17.7312 25.2455 17.3217C25.6608 16.9122 25.9615 16.401 26.1173 15.839C26.4967 13.7047 26.6807 11.5402 26.6673 9.37236C26.6802 7.21569 26.496 5.06229 26.1173 2.93906ZM10.6007 13.3557V5.42238L17.584 9.37236L10.6007 13.339V13.3557Z" fill="white"/>
</svg>
